<svg width="20" height="20" viewBox="0 0 20 20" fill="none" xmlns="http://www.w3.org/2000/svg">
<g clip-path="url(#clip0_199_481)">
<path d="M19 5.91739V9.95172C17.1861 9.77174 15.4564 9.09679 14 8.00056V12.5009C13.9997 13.7221 13.6555 14.9186 13.0067 15.9532C12.3579 16.9878 11.4308 17.8187 10.3317 18.3507C9.2325 18.8827 8.00571 19.0944 6.79185 18.9613C5.57799 18.8283 4.42615 18.3559 3.46831 17.5985C2.51046 16.841 1.78534 15.829 1.37603 14.6784C0.966714 13.5278 0.889763 12.2852 1.15399 11.0929C1.41821 9.90061 2.01293 8.80686 2.87 7.93697C3.72707 7.06708 4.81183 6.45624 6 6.17441V10.5008C5.65909 10.7565 5.38919 11.0951 5.21594 11.4844C5.04269 11.8738 4.97183 12.301 5.0101 12.7255C5.04837 13.1499 5.1945 13.5575 5.4346 13.9096C5.6747 14.2617 6.00081 14.5466 6.38197 14.7372C6.76312 14.9278 7.18666 15.0177 7.61237 14.9986C8.03808 14.9794 8.45183 14.8518 8.81433 14.6277C9.17683 14.4037 9.47604 14.0907 9.68355 13.7184C9.89107 13.3462 10 12.9271 10 12.5009V1H14.083C14.2912 2.2285 14.8764 3.36181 15.7574 4.24289C16.6384 5.12396 17.7716 5.70916 19 5.91739Z" stroke="black" stroke-width="2" stroke-linecap="round" stroke-linejoin="round"/>
</g>
<defs>
<clipPath id="clip0_199_481">
<rect width="20" height="20" fill="white"/>
</clipPath>
</defs>
</svg>
